<svg xmlns="http://www.w3.org/2000/svg" viewBox="0 0 306.24999 362.50001" xmlns:xlink="http://www.w3.org/1999/xlink"><defs><path id="U" d="m0 0c2.52 2.35 6.467 2.213 8.818-.307 2.35-2.519 2.213-6.467-.307-8.817-2.519-2.351-6.467-2.213-8.817.306-2.351 2.52-2.214 6.468.306 8.818"/><path id="V" d="m0 0c2.52 2.35 6.467 2.213 8.818-.306 2.35-2.52 2.213-6.468-.307-8.818-2.519-2.35-6.467-2.213-8.817.306-2.351 2.52-2.214 6.468.306 8.818"/><path id="W" d="m0 0c1.701 1.587 4.367 1.494 5.954-.207 1.588-1.701 1.495-4.367-.207-5.954-1.701-1.588-4.367-1.495-5.954.207-1.587 1.701-1.494 4.367.207 5.954"/><path id="X" d="m0 0c1.701 1.587 4.367 1.494 5.954-.207 1.588-1.701 1.495-4.367-.207-5.954-1.701-1.588-4.367-1.495-5.954.206-1.587 1.702-1.494 4.368.207 5.955"/><path id="Y" d="m0 0c1.188 1.108 3.049 1.043 4.157-.145 1.108-1.187 1.043-3.048-.145-4.156-1.188-1.108-3.049-1.043-4.156.144-1.108 1.188-1.044 3.049.144 4.157"/><path id="Z" d="m0 0c1.188 1.108 3.049 1.043 4.157-.145 1.108-1.187 1.043-3.048-.145-4.156-1.187-1.108-3.049-1.043-4.156.144-1.108 1.188-1.044 3.049.144 4.157"/><clipPath id="K"><path d="m180.72 3008h10.426v-10.43h-10.426v10.43"/></clipPath><clipPath id="T"><path d="m274.23 3058.9h14.478v-14.48h-14.478v14.48"/></clipPath><clipPath id="J"><path d="m177.63 3118.6h10.426v-10.43h-10.426v10.43"/></clipPath><clipPath id="H"><path d="m224.74 3097h7.882v-7.88h-7.882v7.88"/></clipPath><clipPath id="G"><path d="m195.24 3118h7.882v-7.89h-7.882v7.89"/></clipPath><clipPath id="I"><path d="m168.24 3075.3h7.882v-7.88h-7.882v7.88"/></clipPath><clipPath id="L"><path d="m284.58 3039.8h10.426v-10.43h-10.426v10.43"/></clipPath><clipPath id="S"><path d="m262.98 3032h14.478v-14.48h-14.478v14.48"/></clipPath><clipPath id="R"><path d="m259.06 3084.4h14.478v-14.47h-14.478v14.47"/></clipPath><clipPath id="M"><path d="m194.28 3020.4h10.426v-10.42h-10.426v10.42"/></clipPath><clipPath id="Q"><path d="m183.27 3068.8h14.478v-14.48h-14.478v14.48"/></clipPath><clipPath id="O"><path d="m234.11 3068.8h14.477v-14.48h-14.477v14.48"/></clipPath><clipPath id="N"><path d="m210.12 3007.3h14.478v-14.48h-14.478v14.48"/></clipPath><clipPath id="P"><path d="m203.57 3106h14.478v-14.47h-14.478v14.47"/></clipPath><clipPath id="F"><path d="m231.85 3081.4h7.882v-7.89h-7.882v7.89"/></clipPath><clipPath id="5"><path d="m297.11 3063h7.882v-7.89h-7.882v7.89"/></clipPath><clipPath id="4"><path d="m257.95 3062.5h7.882v-7.89h-7.882v7.89"/></clipPath><clipPath id="E"><path d="m196.02 3000.3h7.882v-7.88h-7.882v7.88"/></clipPath><clipPath id="3"><path d="m162.12 3010h7.882v-7.88h-7.882v7.88"/></clipPath><clipPath id="1"><path d="m155.22 3048.1h10.426v-10.43h-10.426v10.43"/></clipPath><clipPath id="0"><path d="m156.34 3088.7h10.426v-10.43h-10.426v10.43"/></clipPath><clipPath id="2"><path d="m177.25 3025.1h10.426v-10.43h-10.426v10.43"/></clipPath><clipPath id="6"><path d="m335.82 3052h7.882v-7.89h-7.882v7.89"/></clipPath><clipPath id="D"><path d="m196.66 3079.7h7.883v-7.88h-7.883v7.88"/></clipPath><clipPath id="C"><path d="m170.48 3096.3h7.882v-7.88h-7.882v7.88"/></clipPath><clipPath id="7"><path d="m243.67 3031.5h7.882v-7.88h-7.882v7.88"/></clipPath><clipPath id="B"><path d="m195.46 3037.2h7.882v-7.88h-7.882v7.88"/></clipPath><clipPath id="9"><path d="m231.12 3009.5h7.882v-7.88h-7.882v7.88"/></clipPath><clipPath id="8"><path d="m231.12 3024.2h7.882v-7.88h-7.882v7.88"/></clipPath><clipPath id="A"><path d="m164.47 3061h7.882v-7.88h-7.882v7.88"/></clipPath></defs><path d="m120.2 187.56c3.786-3.531 9.719-3.325 13.25.46 3.532 3.786 3.326 9.719-.46 13.251-3.786 3.531-9.719 3.325-13.25-.461-3.532-3.786-3.326-9.719.46-13.25" fill="#1380a7"/><path d="m120.2 187.56c3.786-3.531 9.719-3.325 13.25.46 3.532 3.786 3.326 9.719-.46 13.251-3.786 3.531-9.719 3.325-13.25-.461-3.532-3.786-3.326-9.719.46-13.25z" fill="none" stroke="#303030" stroke-width="2.5" stroke-miterlimit="10"/><path d="m148 202.39c3.15-2.938 8.08-2.766 11.02.382 2.938 3.15 2.766 8.09-.384 11.02-3.149 2.938-8.08 2.766-11.02-.382-2.938-3.15-2.766-8.09.384-11.02" fill="#1380a7"/><path d="m148 202.39c3.15-2.938 8.08-2.766 11.02.382 2.938 3.15 2.766 8.09-.384 11.02-3.149 2.938-8.08 2.766-11.02-.382-2.938-3.15-2.766-8.09.384-11.02z" fill="none" stroke="#303030" stroke-width="2.5" stroke-miterlimit="10"/><g transform="matrix(1.25 0 0-1.25-140.1 4010.82)"><g clip-path="url(#T)" opacity=".5"><path d="m0 0c2.52 2.35 6.467 2.213 8.818-.307 2.35-2.519 2.213-6.467-.307-8.817-2.519-2.35-6.467-2.213-8.817.306-2.351 2.52-2.214 6.468.306 8.818" fill="#fff" transform="translate(277.22 3056.2)"/><path d="m0 0c2.52 2.35 6.467 2.213 8.818-.307 2.35-2.519 2.213-6.467-.307-8.817-2.519-2.35-6.467-2.213-8.817.306-2.351 2.52-2.214 6.468.306 8.818" fill="none" stroke="#303030" stroke-width="2" stroke-miterlimit="10" transform="translate(277.22 3056.2)"/></g></g><path d="m238.3 200.91c3.15-2.938 8.08-2.766 11.02.384 2.938 3.149 2.766 8.08-.384 11.02-3.149 2.939-8.08 2.766-11.02-.382-2.939-3.15-2.768-8.09.382-11.02" fill="#1380a7"/><path d="m238.3 200.91c3.15-2.938 8.08-2.766 11.02.384 2.938 3.149 2.766 8.08-.384 11.02-3.149 2.939-8.08 2.766-11.02-.382-2.939-3.15-2.768-8.09.382-11.02z" fill="none" stroke="#303030" stroke-width="2.5" stroke-miterlimit="10"/><g transform="matrix(1.25 0 0-1.25-140.1 4010.82)"><g clip-path="url(#S)" opacity=".5"><path d="m0 0c2.52 2.35 6.467 2.213 8.818-.307 2.35-2.519 2.213-6.467-.307-8.817-2.519-2.35-6.467-2.213-8.818.306-2.35 2.52-2.213 6.468.307 8.818" fill="#fff" transform="translate(265.96 3029.3)"/><path d="m0 0c2.52 2.35 6.467 2.213 8.818-.307 2.35-2.519 2.213-6.467-.307-8.817-2.519-2.35-6.467-2.213-8.818.306-2.35 2.52-2.213 6.468.307 8.818" fill="none" stroke="#303030" stroke-width="2" stroke-miterlimit="10" transform="translate(265.96 3029.3)"/></g></g><g transform="matrix(1.25 0 0-1.25-140.1 4010.82)"><g clip-path="url(#R)" opacity=".5"><use fill="#fff" transform="translate(262.04 3081.7)" xlink:href="#U"/><use fill="none" stroke="#303030" stroke-width="2" stroke-miterlimit="10" transform="translate(262.04 3081.7)" xlink:href="#U"/></g><g clip-path="url(#Q)" opacity=".5"><use fill="#fff" transform="translate(186.25 3066.2)" xlink:href="#U"/><use fill="none" stroke="#303030" stroke-width="2" stroke-miterlimit="10" transform="translate(186.25 3066.2)" xlink:href="#U"/></g></g><path d="m125.6 225.38c3.15-2.938 8.08-2.766 11.02.382 2.938 3.15 2.766 8.09-.384 11.02-3.149 2.938-8.08 2.766-11.02-.382-2.938-3.15-2.766-8.09.384-11.02" fill="#f0bc00"/><path d="m125.6 225.38c3.15-2.938 8.08-2.766 11.02.382 2.938 3.15 2.766 8.09-.384 11.02-3.149 2.938-8.08 2.766-11.02-.382-2.938-3.15-2.766-8.09.384-11.02z" fill="none" stroke="#303030" stroke-width="2.5" stroke-miterlimit="10"/><path d="m79.1 202.39c3.15-2.938 8.08-2.766 11.02.382 2.938 3.15 2.766 8.09-.384 11.02-3.149 2.938-8.08 2.766-11.02-.382-2.939-3.15-2.767-8.09.382-11.02" fill="#f0bc00"/><path d="m79.1 202.39c3.15-2.938 8.08-2.766 11.02.382 2.938 3.15 2.766 8.09-.384 11.02-3.149 2.938-8.08 2.766-11.02-.382-2.939-3.15-2.767-8.09.382-11.02z" fill="none" stroke="#303030" stroke-width="2.5" stroke-miterlimit="10"/><g transform="matrix(1.25 0 0-1.25-140.1 4010.82)"><g clip-path="url(#P)" opacity=".5"><path d="m0 0c2.52 2.35 6.467 2.213 8.818-.306 2.35-2.52 2.213-6.468-.307-8.818-2.519-2.35-6.467-2.213-8.818.306-2.35 2.52-2.213 6.468.307 8.818" fill="#fff" transform="translate(206.56 3103.3)"/><path d="m0 0c2.52 2.35 6.467 2.213 8.818-.306 2.35-2.52 2.213-6.468-.307-8.818-2.519-2.35-6.467-2.213-8.818.306-2.35 2.52-2.213 6.468.307 8.818" fill="none" stroke="#303030" stroke-width="2" stroke-miterlimit="10" transform="translate(206.56 3103.3)"/></g></g><g transform="matrix(1.25 0 0-1.25-140.1 4010.82)"><g clip-path="url(#O)" opacity=".5"><use fill="#fff" transform="translate(237.09 3066.2)" xlink:href="#V"/><use fill="none" stroke="#303030" stroke-width="2" stroke-miterlimit="10" transform="translate(237.09 3066.2)" xlink:href="#V"/></g><g clip-path="url(#N)" opacity=".5"><use fill="#fff" transform="translate(213.1 3004.6)" xlink:href="#V"/><use fill="none" stroke="#303030" stroke-width="2" stroke-miterlimit="10" transform="translate(213.1 3004.6)" xlink:href="#V"/></g></g><path d="m171 240.34c3.15-2.938 8.08-2.766 11.02.382 2.938 3.15 2.766 8.09-.384 11.02-3.149 2.938-8.08 2.766-11.02-.382-2.938-3.15-2.766-8.09.384-11.02" fill="#1380a7"/><path d="m171 240.34c3.15-2.938 8.08-2.766 11.02.382 2.938 3.15 2.766 8.09-.384 11.02-3.149 2.938-8.08 2.766-11.02-.382-2.938-3.15-2.766-8.09.384-11.02z" fill="none" stroke="#303030" stroke-width="2.5" stroke-miterlimit="10"/><path d="m129.8 157.88c2.126-1.984 5.459-1.868 7.442.259 1.985 2.126 1.869 5.459-.259 7.442-2.126 1.985-5.459 1.869-7.442-.257-1.984-2.127-1.868-5.46.259-7.444" fill="#1380a7"/><path d="m129.8 157.88c2.126-1.984 5.459-1.868 7.442.259 1.985 2.126 1.869 5.459-.259 7.442-2.126 1.985-5.459 1.869-7.442-.257-1.984-2.127-1.868-5.46.259-7.444z" fill="none" stroke="#303030" stroke-width="2.5" stroke-miterlimit="10"/><path d="m139.6 121.17c2.126-1.984 5.459-1.868 7.442.259 1.985 2.126 1.869 5.459-.259 7.442-2.126 1.985-5.459 1.869-7.442-.257-1.984-2.127-1.868-5.46.259-7.444" fill="#f0bc00"/><path d="m139.6 121.17c2.126-1.984 5.459-1.868 7.442.259 1.985 2.126 1.869 5.459-.259 7.442-2.126 1.985-5.459 1.869-7.442-.257-1.984-2.127-1.868-5.46.259-7.444z" fill="none" stroke="#303030" stroke-width="2.5" stroke-miterlimit="10"/><g transform="matrix(1.25 0 0-1.25-140.1 4010.82)"><g clip-path="url(#M)" opacity=".5"><path d="m0 0c1.701 1.587 4.367 1.494 5.954-.207 1.588-1.701 1.495-4.367-.207-5.954-1.701-1.588-4.367-1.495-5.954.207-1.587 1.701-1.494 4.367.207 5.954" fill="#fff" transform="translate(196.62 3018.3)"/><use fill="none" stroke="#303030" stroke-width="2" stroke-miterlimit="10" transform="translate(196.62 3018.3)" xlink:href="#W"/></g></g><path d="m259.9 190.83c2.126-1.984 5.459-1.868 7.442.259 1.985 2.126 1.869 5.459-.259 7.442-2.126 1.985-5.459 1.869-7.442-.259-1.984-2.126-1.868-5.459.259-7.442" fill="#1380a7"/><path d="m259.9 190.83c2.126-1.984 5.459-1.868 7.442.259 1.985 2.126 1.869 5.459-.259 7.442-2.126 1.985-5.459 1.869-7.442-.259-1.984-2.126-1.868-5.459.259-7.442z" fill="none" stroke="#303030" stroke-width="2.5" stroke-miterlimit="10"/><g transform="matrix(1.25 0 0-1.25-140.1 4010.82)"><g clip-path="url(#L)" opacity=".5"><path d="m0 0c1.701 1.587 4.367 1.494 5.954-.207 1.588-1.701 1.495-4.367-.207-5.954-1.701-1.588-4.367-1.495-5.954.206-1.587 1.702-1.494 4.368.207 5.955" fill="#fff" transform="translate(286.92 3037.6)"/><use fill="none" stroke="#303030" stroke-width="2" stroke-miterlimit="10" transform="translate(286.92 3037.6)" xlink:href="#X"/></g></g><path d="m214.3 173.39c2.126-1.984 5.459-1.869 7.442.259 1.985 2.126 1.869 5.459-.259 7.442-2.126 1.984-5.459 1.869-7.442-.259-1.984-2.126-1.868-5.459.259-7.442" fill="#f0bc00"/><path d="m214.3 173.39c2.126-1.984 5.459-1.869 7.442.259 1.985 2.126 1.869 5.459-.259 7.442-2.126 1.984-5.459 1.869-7.442-.259-1.984-2.126-1.868-5.459.259-7.442z" fill="none" stroke="#303030" stroke-width="2.5" stroke-miterlimit="10"/><path d="m185.6 202.15c2.126-1.984 5.459-1.868 7.442.259 1.985 2.126 1.869 5.459-.259 7.442-2.126 1.985-5.459 1.869-7.442-.257-1.984-2.127-1.868-5.46.259-7.444" fill="#1380a7"/><path d="m185.6 202.15c2.126-1.984 5.459-1.868 7.442.259 1.985 2.126 1.869 5.459-.259 7.442-2.126 1.985-5.459 1.869-7.442-.257-1.984-2.127-1.868-5.46.259-7.444z" fill="none" stroke="#303030" stroke-width="2.5" stroke-miterlimit="10"/><path d="m66.5 120.04c2.126-1.984 5.459-1.868 7.442.259 1.985 2.126 1.869 5.459-.259 7.442-2.126 1.985-5.459 1.869-7.442-.257-1.984-2.127-1.868-5.46.259-7.444" fill="#f0bc00"/><path d="m66.5 120.04c2.126-1.984 5.459-1.868 7.442.259 1.985 2.126 1.869 5.459-.259 7.442-2.126 1.985-5.459 1.869-7.442-.257-1.984-2.127-1.868-5.46.259-7.444z" fill="none" stroke="#303030" stroke-width="2.5" stroke-miterlimit="10"/><g transform="matrix(1.25 0 0-1.25-140.1 4010.82)"><g clip-path="url(#K)" opacity=".5"><use fill="#fff" transform="translate(183.06 3005.8)" xlink:href="#X"/><use fill="none" stroke="#303030" stroke-width="2" stroke-miterlimit="10" transform="translate(183.06 3005.8)" xlink:href="#X"/></g></g><g transform="matrix(1.25 0 0-1.25-140.1 4010.82)"><g clip-path="url(#J)" opacity=".5"><use fill="#fff" transform="translate(179.97 3116.5)" xlink:href="#W"/><use fill="none" stroke="#303030" stroke-width="2" stroke-miterlimit="10" transform="translate(179.97 3116.5)" xlink:href="#W"/></g><g clip-path="url(#I)" opacity=".5"><path d="m0 0c1.188 1.108 3.049 1.043 4.157-.145 1.108-1.187 1.043-3.048-.145-4.156-1.188-1.108-3.049-1.043-4.156.144-1.108 1.188-1.044 3.049.144 4.157" fill="#fff" transform="translate(170.18 3073.6)"/><use fill="none" stroke="#303030" stroke-width="2" stroke-miterlimit="10" transform="translate(170.18 3073.6)" xlink:href="#Y"/></g></g><path d="m83.8 276.9c1.485-1.385 3.811-1.304 5.196.18 1.385 1.485 1.304 3.811-.181 5.196-1.484 1.385-3.811 1.304-5.195-.18-1.385-1.485-1.305-3.811.18-5.196" fill="#1380a7"/><path d="m83.8 276.9c1.485-1.385 3.811-1.304 5.196.18 1.385 1.485 1.304 3.811-.181 5.196-1.484 1.385-3.811 1.304-5.195-.18-1.385-1.485-1.305-3.811.18-5.196z" fill="none" stroke="#303030" stroke-width="2.5" stroke-miterlimit="10"/><path d="m165.4 148.48c1.485-1.385 3.811-1.304 5.196.181 1.385 1.484 1.304 3.81-.181 5.195-1.484 1.385-3.811 1.304-5.195-.18-1.385-1.485-1.305-3.811.18-5.196" fill="#1380a7"/><path d="m165.4 148.48c1.485-1.385 3.811-1.304 5.196.181 1.385 1.484 1.304 3.81-.181 5.195-1.484 1.385-3.811 1.304-5.195-.18-1.385-1.485-1.305-3.811.18-5.196z" fill="none" stroke="#303030" stroke-width="2.5" stroke-miterlimit="10"/><g transform="matrix(1.25 0 0-1.25-140.1 4010.82)"><g clip-path="url(#H)" opacity=".5"><path d="m0 0c1.188 1.108 3.049 1.043 4.157-.145 1.108-1.187 1.043-3.048-.145-4.156-1.187-1.108-3.049-1.043-4.156.144-1.108 1.188-1.044 3.049.144 4.157" fill="#fff" transform="translate(226.68 3095.2)"/><use fill="none" stroke="#303030" stroke-width="2" stroke-miterlimit="10" transform="translate(226.68 3095.2)" xlink:href="#Z"/></g></g><g transform="matrix(1.25 0 0-1.25-140.1 4010.82)"><g clip-path="url(#G)" opacity=".5"><use fill="#fff" transform="translate(197.18 3116.2)" xlink:href="#Y"/><use fill="none" stroke="#303030" stroke-width="2" stroke-miterlimit="10" transform="translate(197.18 3116.2)" xlink:href="#Y"/></g><g clip-path="url(#F)" opacity=".5"><path d="m0 0c1.188 1.108 3.049 1.043 4.157-.144 1.108-1.188 1.043-3.049-.145-4.157-1.187-1.108-3.049-1.043-4.156.144-1.108 1.188-1.044 3.049.144 4.157" fill="#fff" transform="translate(233.79 3079.6)"/><path d="m0 0c1.188 1.108 3.049 1.043 4.157-.144 1.108-1.188 1.043-3.049-.145-4.157-1.187-1.108-3.049-1.043-4.156.144-1.108 1.188-1.044 3.049.144 4.157" fill="none" stroke="#303030" stroke-width="2" stroke-miterlimit="10" transform="translate(233.79 3079.6)"/></g><g clip-path="url(#E)" opacity=".5"><use fill="#fff" transform="translate(197.95 2998.6)" xlink:href="#Z"/><use fill="none" stroke="#303030" stroke-width="2" stroke-miterlimit="10" transform="translate(197.95 2998.6)" xlink:href="#Z"/></g></g><path d="m67.7 224.88c1.485-1.385 3.811-1.304 5.196.181 1.385 1.484 1.304 3.81-.181 5.195-1.484 1.385-3.811 1.304-5.195-.18-1.385-1.485-1.305-3.811.18-5.196" fill="#1380a7"/><path d="m67.7 224.88c1.485-1.385 3.811-1.304 5.196.181 1.385 1.484 1.304 3.81-.181 5.195-1.484 1.385-3.811 1.304-5.195-.18-1.385-1.485-1.305-3.811.18-5.196z" fill="none" stroke="#303030" stroke-width="2.5" stroke-miterlimit="10"/><g transform="matrix(1.25 0 0-1.25-140.1 4010.82)"><g clip-path="url(#D)" opacity=".5"><use fill="#fff" transform="translate(198.6 3077.9)" xlink:href="#Z"/><use fill="none" stroke="#303030" stroke-width="2" stroke-miterlimit="10" transform="translate(198.6 3077.9)" xlink:href="#Z"/></g></g><g transform="matrix(1.25 0 0-1.25-140.1 4010.82)"><g clip-path="url(#C)" opacity=".5"><use fill="#fff" transform="translate(172.42 3094.5)" xlink:href="#Y"/><use fill="none" stroke="#303030" stroke-width="2" stroke-miterlimit="10" transform="translate(172.42 3094.5)" xlink:href="#Y"/></g><g clip-path="url(#B)" opacity=".5"><use fill="#fff" transform="translate(197.4 3035.4)" xlink:href="#Y"/><use fill="none" stroke="#303030" stroke-width="2" stroke-miterlimit="10" transform="translate(197.4 3035.4)" xlink:href="#Y"/></g><g clip-path="url(#A)" opacity=".5"><use fill="#fff" transform="translate(166.4 3059.2)" xlink:href="#Z"/><use fill="none" stroke="#303030" stroke-width="2" stroke-miterlimit="10" transform="translate(166.4 3059.2)" xlink:href="#Z"/></g><g clip-path="url(#9)" opacity=".5"><use fill="#fff" transform="translate(233.06 3007.7)" xlink:href="#Z"/><use fill="none" stroke="#303030" stroke-width="2" stroke-miterlimit="10" transform="translate(233.06 3007.7)" xlink:href="#Z"/></g><g clip-path="url(#8)" opacity=".5"><path d="m0 0c1.188 1.108 3.049 1.043 4.157-.144 1.108-1.188 1.043-3.049-.145-4.157-1.188-1.108-3.049-1.043-4.156.144-1.108 1.188-1.044 3.049.144 4.157" fill="#fff" transform="translate(233.06 3022.4)"/><path d="m0 0c1.188 1.108 3.049 1.043 4.157-.144 1.108-1.188 1.043-3.049-.145-4.157-1.188-1.108-3.049-1.043-4.156.144-1.108 1.188-1.044 3.049.144 4.157" fill="none" stroke="#303030" stroke-width="2" stroke-miterlimit="10" transform="translate(233.06 3022.4)"/></g><g clip-path="url(#7)" opacity=".5"><use fill="#fff" transform="translate(245.61 3029.7)" xlink:href="#Z"/><use fill="none" stroke="#303030" stroke-width="2" stroke-miterlimit="10" transform="translate(245.61 3029.7)" xlink:href="#Z"/></g><g clip-path="url(#6)" opacity=".5"><use fill="#fff" transform="translate(337.76 3050.2)" xlink:href="#Z"/><use fill="none" stroke="#303030" stroke-width="2" stroke-miterlimit="10" transform="translate(337.76 3050.2)" xlink:href="#Z"/></g><g clip-path="url(#5)" opacity=".5"><use fill="#fff" transform="translate(299.04 3061.2)" xlink:href="#Z"/><use fill="none" stroke="#303030" stroke-width="2" stroke-miterlimit="10" transform="translate(299.04 3061.2)" xlink:href="#Z"/></g><g clip-path="url(#4)" opacity=".5"><path d="m0 0c1.188 1.108 3.049 1.043 4.157-.144 1.108-1.188 1.043-3.049-.145-4.157-1.188-1.108-3.049-1.043-4.157.144-1.107 1.188-1.043 3.049.145 4.157" fill="#fff" transform="translate(259.89 3060.7)"/><path d="m0 0c1.188 1.108 3.049 1.043 4.157-.144 1.108-1.188 1.043-3.049-.145-4.157-1.188-1.108-3.049-1.043-4.157.144-1.107 1.188-1.043 3.049.145 4.157" fill="none" stroke="#303030" stroke-width="2" stroke-miterlimit="10" transform="translate(259.89 3060.7)"/></g><g clip-path="url(#3)" opacity=".5"><use fill="#fff" transform="translate(164.05 3008.2)" xlink:href="#Z"/><use fill="none" stroke="#303030" stroke-width="2" stroke-miterlimit="10" transform="translate(164.05 3008.2)" xlink:href="#Z"/></g></g><path d="m93.8 140.59c3.15-2.938 8.08-2.766 11.02.384 2.938 3.149 2.766 8.08-.384 11.02-3.149 2.939-8.08 2.766-11.02-.382-2.938-3.15-2.766-8.09.384-11.02" fill="#1380a7"/><path d="m93.8 140.59c3.15-2.938 8.08-2.766 11.02.384 2.938 3.149 2.766 8.08-.384 11.02-3.149 2.939-8.08 2.766-11.02-.382-2.938-3.15-2.766-8.09.384-11.02z" fill="none" stroke="#303030" stroke-width="2.5" stroke-miterlimit="10"/><g transform="matrix(1.25 0 0-1.25-140.1 4010.82)"><g clip-path="url(#2)" opacity=".5"><use fill="#fff" transform="translate(179.59 3022.9)" xlink:href="#X"/><use fill="none" stroke="#303030" stroke-width="2" stroke-miterlimit="10" transform="translate(179.59 3022.9)" xlink:href="#X"/></g></g><g transform="matrix(1.25 0 0-1.25-140.1 4010.82)"><g clip-path="url(#1)" opacity=".5"><use fill="#fff" transform="translate(157.56 3046)" xlink:href="#W"/><use fill="none" stroke="#303030" stroke-width="2" stroke-miterlimit="10" transform="translate(157.56 3046)" xlink:href="#W"/></g><g clip-path="url(#0)" opacity=".5"><use fill="#fff" transform="translate(158.68 3086.6)" xlink:href="#W"/><use fill="none" stroke="#303030" stroke-width="2" stroke-miterlimit="10" transform="translate(158.68 3086.6)" xlink:href="#W"/></g></g><g fill="none" stroke="#fff" stroke-width=".625" stroke-miterlimit="10"><path d="m182.1 123.35c21.585 33.16 81.83 59.906 122.76 63.891"/><path d="m182.1 273.67c21.585-33.16 81.83-59.906 122.76-63.891"/></g></svg>
