<svg xmlns="http://www.w3.org/2000/svg" viewBox="0 0 306.25001 362.50001"><defs><clipPath><path d="m886.08 3133.7h166.69v-166.69h-166.69v166.69"/></clipPath></defs><g fill="none" stroke="#fff" stroke-linejoin="round" stroke-linecap="round" stroke-width="1.25" stroke-miterlimit="10"><path d="m270.48 191.92c0 57.19-46.36 103.56-103.56 103.56-57.19 0-103.56-46.36-103.56-103.56 0-57.19 46.36-103.56 103.56-103.56 57.19 0 103.56 46.36 103.56 103.56z" stroke-dasharray="1.25 2.5"/><g stroke-dasharray="1.25 1.25"><path d="m166.88 88.42v103.56" opacity=".612"/><path d="m104.29 276.17l62.59-84.2" opacity=".612"/><path d="m226.85 275.92l-60.03-84.05" opacity=".612"/><path d="m265.23 159.67l-98.31 32.27" opacity=".612"/></g></g><path d="m248.3 304.2h-47.5c-.69 0-1.25-.56-1.25-1.25v-62.5c0-.69.56-1.25 1.25-1.25h47.5c.69 0 1.25.56 1.25 1.25v62.5c0 .69-.56 1.25-1.25 1.25" fill="#303030"/><path d="m248.3 304.2h-47.5c-.69 0-1.25-.56-1.25-1.25v-62.5c0-.69.56-1.25 1.25-1.25h47.5c.69 0 1.25.56 1.25 1.25v62.5c0 .69-.56 1.25-1.25 1.25z" fill="none" stroke="#fff" stroke-width=".611" stroke-miterlimit="10"/><g fill="#dd752f"><path d="m138.8 186.11c-3.34 1.197-7.03-.535-8.232-3.871-1.208-3.336.521-7.01 3.861-8.209 3.34-1.197 7.03.536 8.232 3.871 1.208 3.336-.521 7.01-3.861 8.209"/><path d="m123.6 170.11c1.109 3.063-.479 6.436-3.545 7.536-3.067 1.1-6.451-.491-7.56-3.554-1.108-3.064.48-6.438 3.546-7.537 3.066-1.099 6.45.493 7.559 3.555"/><path d="m105.4 162.73c1.01 2.789-.436 5.863-3.229 6.864-2.794 1-5.876-.448-6.885-3.238-1.01-2.789.436-5.863 3.229-6.864 2.794-1 5.875.449 6.885 3.238"/><path d="m88.3 155.77c.911 2.516-.394 5.289-2.914 6.192-2.519.903-5.3-.405-6.21-2.921-.911-2.516.394-5.289 2.912-6.191 2.52-.904 5.3.404 6.211 2.92"/><path d="m72.1 149.22c.811 2.243-.351 4.714-2.596 5.52-2.246.806-4.725-.36-5.538-2.604-.811-2.243.351-4.714 2.598-5.52 2.246-.805 4.725.361 5.536 2.604"/><path d="m56.9 143.09c.712 1.97-.309 4.141-2.28 4.847-1.972.708-4.15-.316-4.862-2.286-.714-1.97.307-4.14 2.28-4.847 1.972-.708 4.15.316 4.862 2.286"/><path d="m42.6 137.37c.614 1.696-.265 3.566-1.965 4.175-1.699.61-3.574-.271-4.188-1.969-.615-1.697.265-3.566 1.964-4.176 1.7-.609 3.575.273 4.189 1.97"/><path d="m29.3 132.06c.515 1.424-.223 2.993-1.648 3.504-1.426.511-3-.229-3.515-1.653-.515-1.424.223-2.993 1.649-3.504 1.425-.511 2.999.229 3.514 1.653"/></g><path d="m226 299.09c0 .69-.56 1.25-1.25 1.25-.69 0-1.25-.56-1.25-1.25 0-.69.56-1.25 1.25-1.25.69 0 1.25.56 1.25 1.25" fill="#262626"/><path d="m226 299.09c0 .69-.56 1.25-1.25 1.25-.69 0-1.25-.56-1.25-1.25 0-.69.56-1.25 1.25-1.25.69 0 1.25.56 1.25 1.25z" fill="none" stroke="#fff" stroke-width=".522" stroke-miterlimit="10"/><path d="m200.5 69.6c0-.688-.563-1.25-1.25-1.25h-64.08c-.688 0-1.25.563-1.25 1.25v42.865c0 .688.563 1.25 1.25 1.25h64.08c.688 0 1.25-.563 1.25-1.25v-42.865" fill="#303030"/><path d="m200.5 69.6c0-.688-.563-1.25-1.25-1.25h-64.08c-.688 0-1.25.563-1.25 1.25v42.865c0 .688.563 1.25 1.25 1.25h64.08c.688 0 1.25-.563 1.25-1.25v-42.865z" fill="none" stroke="#fff" stroke-width=".625" stroke-miterlimit="10"/><path d="m204.5 120.08c0-.688-.563-1.25-1.25-1.25h-72c-.688 0-1.25.563-1.25 1.25v2.282c0 .688.563 1.25 1.25 1.25h72c.688 0 1.25-.563 1.25-1.25v-2.282" fill="#303030"/><g stroke-width=".625" stroke-miterlimit="10"><path d="m204.5 120.08c0-.688-.563-1.25-1.25-1.25h-72c-.688 0-1.25.563-1.25 1.25v2.282c0 .688.563 1.25 1.25 1.25h72c.688 0 1.25-.563 1.25-1.25v-2.282z" fill="none" stroke="#fff"/><path d="m197.1 108.4h-59.58v-36.25h59.58v36.25z" fill="#303030" stroke="#dd752f"/></g><path d="m244.6 294.3h-40.12c-.347 0-.63-.283-.63-.63v-49.678c0-.347.282-.63.63-.63h40.12c.347 0 .63.282.63.63v49.678c0 .348-.282.63-.63.63" fill="#303030"/><path d="m244.6 294.3h-40.12c-.347 0-.63-.283-.63-.63v-49.678c0-.347.282-.63.63-.63h40.12c.347 0 .63.282.63.63v49.678c0 .348-.282.63-.63.63z" fill="none" stroke="#dd752f" stroke-width=".624" stroke-miterlimit="10"/><path d="m273.5 178.75h-16.532c-.267 0-.484-.216-.484-.484v-26.855c0-.266.216-.484.484-.484h16.532c.267 0 .484.218.484.484v26.855c0 .268-.216.484-.484.484" fill="#303030"/><path d="m273.5 178.75h-16.532c-.267 0-.484-.216-.484-.484v-26.855c0-.266.216-.484.484-.484h16.532c.267 0 .484.218.484.484v26.855c0 .268-.216.484-.484.484z" fill="none" stroke="#fff" stroke-width=".625" stroke-miterlimit="10"/><path d="m266.5 175.34c0 .69-.56 1.25-1.25 1.25-.69 0-1.25-.56-1.25-1.25 0-.69.56-1.25 1.25-1.25.69 0 1.25.56 1.25 1.25" fill="#262626"/><path d="m266.5 175.34c0 .69-.56 1.25-1.25 1.25-.69 0-1.25-.56-1.25-1.25 0-.69.56-1.25 1.25-1.25.69 0 1.25.56 1.25 1.25z" fill="none" stroke="#fff" stroke-width=".625" stroke-miterlimit="10"/><path d="m271.1 172.01h-11.64c-.111 0-.202-.091-.202-.204v-17.789c0-.113.091-.204.202-.204h11.64c.113 0 .202.091.202.204v17.789c0 .112-.09.204-.202.204" fill="#303030"/><path d="m271.1 172.01h-11.64c-.111 0-.202-.091-.202-.204v-17.789c0-.113.091-.204.202-.204h11.64c.113 0 .202.091.202.204v17.789c0 .112-.09.204-.202.204z" fill="none" stroke="#dd752f" stroke-width=".576" stroke-miterlimit="10"/><g fill="#303030"><path d="m122.2 283.9h-36.431v-20.8h36.431v20.8"/><path d="m117.9 279.9h-27.5v-12.5h27.5v12.5z" stroke="#dd752f" stroke-width=".625" stroke-miterlimit="10"/></g><g fill="none" stroke="#fff" stroke-width=".625" stroke-miterlimit="10"><path d="m85.8 263.1v20.8h36.901v-20.8h-36.901z"/><path d="m122.7 265.5l-18.449 10.606-18.452-10.481"/></g><path d="m183.4 191.91c0 9.118-7.391 16.509-16.509 16.509-9.119 0-16.51-7.391-16.51-16.509 0-9.118 7.391-16.509 16.51-16.509 9.118 0 16.509 7.391 16.509 16.509" fill="#dd752f"/><path d="m168.1 192.9h-2.54v-6.35h2.54v6.35m0 3.81h-2.54v-2.54h2.54v2.54m8.555.329l-8.704-14.807c-.304-.518-.705-.787-1.107-.787-.401 0-.803.259-1.106.776l-8.704 14.819c-.609 1.035-.124 1.905 1.076 1.905h17.469c1.2 0 1.685-.87 1.076-1.905" fill="#303030"/><g transform="translate(823.28 365.03)" fill="#dd752f"><path d="m-805.34-238.31c.416 1.151-.18 2.419-1.332 2.831-1.151.414-2.424-.184-2.84-1.335-.416-1.151.18-2.419 1.332-2.831 1.151-.414 2.424.185 2.84 1.335"/><path d="m-817.64-240.62c-.879.315-1.849-.141-2.165-1.019-.319-.877.136-1.844 1.015-2.159.879-.315 1.849.14 2.166 1.018.317.879-.138 1.845-1.016 2.16"/></g></svg>
