<svg xmlns="http://www.w3.org/2000/svg" viewBox="0 0 306.25 362.50001" xmlns:xlink="http://www.w3.org/1999/xlink"><defs><clipPath><path d="m662.54 3131.5h.994v-156.2h-.994v156.2"/></clipPath><clipPath><path d="m759.91 3131.5h.994v-156.2h-.994v156.2"/></clipPath><clipPath><path d="m695 3131.5h.995v-156.2h-.995v156.2"/></clipPath><clipPath><path d="m727.45 3131.5h.994v-156.2h-.994v156.2"/></clipPath><clipPath><path d="m792.36 3131.5h.995v-156.2h-.995v156.2"/></clipPath><clipPath><path d="m630.08 3101.3h195.74v-1h-195.74v1"/></clipPath><clipPath><path d="m630.08 3006.5h195.74v-1h-195.74v1"/></clipPath><clipPath><path d="m630.08 3069.7h195.74v-1h-195.74v1"/></clipPath><clipPath><path d="m630.08 3038.1h195.74v-1h-195.74v1"/></clipPath></defs><g stroke-miterlimit="10"><g stroke-dasharray="1.24283 2.48567" fill="none" stroke="#fff" stroke-linejoin="round" stroke-linecap="round" stroke-width="1.243"><path d="m70.2 91.59v194" opacity=".5"/><path d="m151.34 91.59v194" opacity=".5"/></g><g opacity=".5" stroke-dasharray="0.994267 1.98853" stroke-width=".994"><path d="m0 0v-155.2" stroke-dasharray="0.994267 1.98853" fill="none" stroke="#fff" stroke-linejoin="round" stroke-linecap="round" stroke-width=".994" transform="matrix(1.25 0 0-1.25 191.91 91.59)" id="0"/></g><g opacity=".5" stroke-dasharray="0.994267 1.98853" stroke-width=".994"><use transform="translate(40.569)" xlink:href="#0"/></g><g fill="none"><g stroke-dasharray="1.25 2.5" stroke-linejoin="round" stroke-linecap="round" stroke-width="1.25"><path d="m29.625 129.34h243.43" opacity=".922" stroke="#dd752f"/><g stroke="#fff"><path d="m29.625 168.84h243.43" opacity=".5"/><path d="m29.625 208.34h243.43" opacity=".5"/><path d="m29.625 247.84h243.43" opacity=".5"/></g></g><g stroke-width=".625"><path d="m28 271.85h42.5l40-23.75 41.25-40 40 18.75 40-43.75h41.25" stroke="#61bb4b"/><path d="m28 248.1h42.5l40-25 41.25 16.25 40-41.25h40l41.25 36.25" stroke="#3fa9f5"/></g><path d="m213.3 129.63l18.458-19.03h41.25" stroke="#dd752f" stroke-width="1.25"/><g stroke-width=".625"><path d="m28 208.1h42.5l40-18.75 41.25-37.5h40l21.542-22.22" stroke="#f0bc00"/><path d="m273 283.72c0 2.063-1.688 3.75-3.75 3.75h-237.18c-2.063 0-3.75-1.688-3.75-3.75v-190.15c0-2.063 1.688-3.75 3.75-3.75h237.18c2.063 0 3.75 1.688 3.75 3.75v190.15z" stroke="#3fa9f5"/></g><path d="m109.85 91.25v194" opacity=".5" stroke-dasharray="1.24283 2.48567" stroke="#fff" stroke-linejoin="round" stroke-linecap="round" stroke-width="1.243"/></g></g></svg>
