<svg xmlns="http://www.w3.org/2000/svg" viewBox="0 0 306.25001 362.5"><g transform="translate(1446.6 648.72)"><g fill="none" stroke-width="1.25" stroke-miterlimit="10"><path d="m-1310.8-519h-102.56c-6.977 0-12.634 5.656-12.634 12.632v102.57c0 6.976 5.656 12.634 12.634 12.634h102.56c6.977 0 12.634-5.658 12.634-12.634v-102.57c0-6.981-5.656-12.638-12.634-12.638z" stroke="#d3d3d3"/><g stroke="#d8d8d8"><path d="m-1298.2-506.36h12.381"/><path d="m-1298.2-403.8h12.381"/></g></g><path d="m-1335.5-428.55l8.391 8.391-1.741 1.74-8.391-8.391-7.616 7.618-1.624-1.624 7.618-7.618-8.16-8.159 1.741-1.74 8.159 8.159 7.579-7.579 1.622 1.624-7.578 7.579" fill="#fff"/><path d="m-1335.5-428.55l8.391 8.391-1.741 1.74-8.391-8.391-7.616 7.618-1.624-1.624 7.618-7.618-8.16-8.159 1.741-1.74 8.159 8.159 7.579-7.579 1.622 1.624-7.578 7.579z" fill="none" stroke="#262626" stroke-width=".625" stroke-miterlimit="10"/><path d="m-1337.2-427.25l8.391 8.391 1.299-1.299-8.391-8.391 7.579-7.579-1.182-1.181-7.578 7.579-8.16-8.159-1.299 1.298 8.16 8.159-7.618 7.618 1.181 1.183 7.618-7.618m8.391 9.275l-8.391-8.391-7.618 7.618-2.065-2.066 7.618-7.618-8.16-8.159 2.182-2.181 8.16 8.159 7.578-7.579 2.066 2.065-7.579 7.579 8.391 8.391-2.182 2.183" fill="#fff"/><g stroke="#262626" stroke-width=".625" stroke-miterlimit="10"><path d="m-1337.2-427.25l8.391 8.391 1.299-1.299-8.391-8.391 7.579-7.579-1.182-1.181-7.578 7.579-8.16-8.159-1.299 1.298 8.16 8.159-7.618 7.618 1.181 1.183 7.618-7.618zm8.391 9.275l-8.391-8.391-7.618 7.618-2.065-2.066 7.618-7.618-8.16-8.159 2.182-2.181 8.16 8.159 7.578-7.579 2.066 2.065-7.579 7.579 8.391 8.391-2.182 2.183z" fill="none"/><g fill="#fff"><path d="m-1347.1-479.17h21.328v2.625h-21.328v-2.625z"/><path d="m-1346.8-476.92h20.702v-2h-20.702v2zm21.328.625h-21.952v-3.25h21.952v3.25z"/></g></g><path d="m-1386.4-476.92v11.866h-2.461v-11.866h-10.772v-2.296h10.772v-11.539h2.461v11.539h10.718v2.296h-10.718" fill="#fff"/><path d="m-1386.4-476.92v11.866h-2.461v-11.866h-10.772v-2.296h10.772v-11.539h2.461v11.539h10.718v2.296h-10.718z" fill="none" stroke="#262626" stroke-width=".625" stroke-miterlimit="10"/><path d="m-1388.5-465.37h1.836v-11.866h10.718v-1.673h-10.718v-11.538h-1.836v11.538h-10.772v1.673h10.772v11.866m2.461.625h-3.086v-11.866h-10.772v-2.923h10.772v-11.538h3.086v11.538h10.718v2.923h-10.718v11.866" fill="#fff"/><g stroke="#262626" stroke-width=".625" stroke-miterlimit="10"><path d="m-1388.5-465.37h1.836v-11.866h10.718v-1.673h-10.718v-11.538h-1.836v11.538h-10.772v1.673h10.772v11.866zm2.461.625h-3.086v-11.866h-10.772v-2.923h10.772v-11.538h3.086v11.538h10.718v2.923h-10.718v11.866z" fill="none"/><g fill="#fff"><path d="m-1397.1-429.17h21.328v2.625h-21.328v-2.625z"/><path d="m-1396.8-426.92h20.702v-2h-20.702v2zm21.328.625h-21.952v-3.25h21.952v3.25z"/></g></g><path d="m-1388.9-435.79c0-1.257 1.094-2.351 2.406-2.351 1.313 0 2.46 1.094 2.46 2.351 0 1.313-1.148 2.461-2.46 2.461-1.313 0-2.406-1.149-2.406-2.461" fill="#fff"/><path d="m-1388.9-435.79c0-1.257 1.094-2.351 2.406-2.351 1.313 0 2.46 1.094 2.46 2.351 0 1.313-1.148 2.461-2.46 2.461-1.313 0-2.406-1.149-2.406-2.461z" fill="none" stroke="#262626" stroke-width=".625" stroke-miterlimit="10"/><path d="m-1386.4-437.83c-1.135 0-2.094.934-2.094 2.039 0 1.165.959 2.149 2.094 2.149 1.145 0 2.148-1 2.148-2.149 0-1.086-1-2.039-2.148-2.039m0 4.813c-1.474 0-2.719-1.271-2.719-2.774 0-1.444 1.245-2.664 2.719-2.664 1.477 0 2.773 1.245 2.773 2.664 0 1.478-1.295 2.774-2.773 2.774" fill="#fff"/><path d="m-1386.4-437.83c-1.135 0-2.094.934-2.094 2.039 0 1.165.959 2.149 2.094 2.149 1.145 0 2.148-1 2.148-2.149 0-1.086-1-2.039-2.148-2.039zm0 4.813c-1.474 0-2.719-1.271-2.719-2.774 0-1.444 1.245-2.664 2.719-2.664 1.477 0 2.773 1.245 2.773 2.664 0 1.478-1.295 2.774-2.773 2.774z" fill="none" stroke="#262626" stroke-width=".625" stroke-miterlimit="10"/><path d="m-1388.9-419.54c0-1.257 1.094-2.351 2.406-2.351 1.313 0 2.46 1.094 2.46 2.351 0 1.313-1.148 2.461-2.46 2.461-1.313 0-2.406-1.149-2.406-2.461" fill="#fff"/><path d="m-1388.9-419.54c0-1.257 1.094-2.351 2.406-2.351 1.313 0 2.46 1.094 2.46 2.351 0 1.313-1.148 2.461-2.46 2.461-1.313 0-2.406-1.149-2.406-2.461z" fill="none" stroke="#262626" stroke-width=".625" stroke-miterlimit="10"/><path d="m-1386.4-421.58c-1.135 0-2.094.934-2.094 2.039 0 1.165.959 2.149 2.094 2.149 1.145 0 2.148-1 2.148-2.149 0-1.086-1-2.039-2.148-2.039m0 4.813c-1.474 0-2.719-1.271-2.719-2.774 0-1.444 1.245-2.664 2.719-2.664 1.477 0 2.773 1.245 2.773 2.664 0 1.478-1.295 2.774-2.773 2.774" fill="#fff"/><path d="m-1386.4-421.58c-1.135 0-2.094.934-2.094 2.039 0 1.165.959 2.149 2.094 2.149 1.145 0 2.148-1 2.148-2.149 0-1.086-1-2.039-2.148-2.039zm0 4.813c-1.474 0-2.719-1.271-2.719-2.774 0-1.444 1.245-2.664 2.719-2.664 1.477 0 2.773 1.245 2.773 2.664 0 1.478-1.295 2.774-2.773 2.774z" fill="none" stroke="#262626" stroke-width=".625" stroke-miterlimit="10"/><g fill="#f0bc00"><path d="m-1278.2-484.06c1.174-1.024 2.705-1.489 4.19-1.394 1.489.158 2.924.859 3.908 2.063 1.97 2.411 1.381 5.911-.935 7.851-1.164.978-2.544 1.351-3.886 1.231-1.349-.08-2.661-.706-3.659-1.86-1.991-2.305-1.975-5.84.382-7.891"/><path d="m-1261.5-474.87c-1.435-2.36-.889-5.561 1.588-7.084 1.236-.786 2.701-.924 4.03-.554 1.332.363 2.534 1.179 3.211 2.483 1.374 2.555.236 5.608-2.154 6.926-1.19.626-2.521.849-3.7.506-.592-.16-1.154-.45-1.658-.839-.51-.366-.961-.849-1.321-1.439"/><path d="m-1245.9-470.68c-.859-2.384.196-5.145 2.665-6.05 2.484-.951 5.33.498 6.13 2.961.777 2.522-.731 5.07-3.106 5.83-2.41.82-4.804-.401-5.689-2.745"/><path d="m-1231.9-464.01c-.426-2.26.965-4.535 3.275-4.981 2.325-.47 4.595 1.141 4.985 3.436.37 2.322-1.241 4.444-3.497 4.831-2.267.401-4.324-1.049-4.763-3.286"/><path d="m-1219.5-455.94c-.229-2.053 1.229-3.933 3.289-4.175 2.068-.241 3.924 1.241 4.145 3.299.223 2.056-1.263 3.915-3.318 4.152-2.055.234-3.89-1.23-4.116-3.276"/><path d="m-1207.9-447.78c-.247-1.808 1.049-3.449 2.836-3.709 1.787-.251 3.394.959 3.666 2.731.266 1.785-.92 3.504-2.733 3.784-1.824.293-3.527-1-3.77-2.806"/><path d="m-1196.4-440.74c-.376-1.548.602-3.06 2.088-3.434 1.5-.392 2.966.438 3.374 1.954.424 1.464-.384 3.081-1.922 3.53-1.509.405-3.162-.511-3.539-2.05"/><path d="m-1184.8-435.73c-.537-1.202.072-2.589 1.256-3.132 1.191-.554 2.499-.012 3.057 1.15.556 1.154.114 2.598-1.098 3.192-1.203.574-2.68-.014-3.216-1.21"/><path d="m-1173.5-433c-.589-.892-.306-2.071.568-2.67.875-.603 2.01-.389 2.609.488.594.877.418 2.084-.463 2.686-.878.603-2.124.373-2.714-.504"/><path d="m-1162.7-434.33c.599-.538 1.494-.479 2.035.13.54.61.519 1.54-.082 2.077-.6.536-1.551.476-2.089-.132-.539-.61-.461-1.539.136-2.075"/></g><g fill="#3fa9f5"><path d="m-1278.2-459c1.224-1.012 2.82-1.485 4.368-1.358 1.547.181 3.036.908 4.04 2.129 1.01 1.206 1.332 2.728 1.108 4.142-.224 1.4-.991 2.726-2.197 3.69-1.21.956-2.625 1.32-3.994 1.164-1.379-.086-2.716-.72-3.737-1.877-2.036-2.317-2.04-5.851.416-7.89"/><path d="m-1261.1-449.41c-1.388-2.41-.74-5.594 1.884-7.01 1.314-.749 2.826-.731 4.203-.325.685.219 1.334.54 1.885.994.546.474 1.01 1.049 1.329 1.709 1.303 2.639-.038 5.611-2.551 6.791-.631.299-1.274.435-1.916.48-.648.059-1.284-.01-1.882-.2-1.197-.375-2.244-1.262-2.95-2.436"/><path d="m-1245.3-444.17c-.734-2.445.507-5.13 3.109-5.835 1.309-.373 2.67-.129 3.777.543 1.116.659 2 1.692 2.305 3.01.632 2.598-1.091 5.01-3.57 5.559-1.233.246-2.481.095-3.47-.51-.985-.613-1.777-1.553-2.151-2.765"/><path d="m-1231.5-436.15c-.279-2.31 1.3-4.46 3.691-4.684 2.41-.248 4.591 1.618 4.825 3.966.214 2.376-1.576 4.359-3.896 4.51-2.342.185-4.325-1.509-4.62-3.793"/><path d="m-1219.4-426.74c-.091-2.094 1.52-3.844 3.631-3.881 2.119-.036 3.899 1.646 3.984 3.745.085 2.098-1.553 3.825-3.656 3.859-2.104.029-3.869-1.636-3.959-3.723"/><path d="m-1208.2-417.34c-.125-1.849 1.304-3.373 3.14-3.455 1.839-.081 3.386 1.315 3.543 3.123.149 1.824-1.179 3.436-3.044 3.539-1.881.115-3.51-1.365-3.639-3.206"/><path d="m-1197-409.11c-.28-1.589.824-3.01 2.368-3.249 1.535-.209 3 .715 3.309 2.285.318 1.544-.616 3.085-2.2 3.364-1.57.262-3.223-.786-3.476-2.4"/><path d="m-1185.5-403c-.469-1.279.234-2.604 1.471-3.04 1.253-.461 2.572.134 3.068 1.376.51 1.196-.019 2.625-1.29 3.114-1.256.459-2.764-.211-3.249-1.45"/><path d="m-1173.9-399.53c-.574-.949-.235-2.12.671-2.64.921-.574 2.08-.326 2.67.571.589.896.381 2.098-.546 2.67-.924.57-2.215.305-2.795-.601"/><path d="m-1162.7-400.59c.62-.534 1.539-.469 2.095.144.556.613.535 1.543-.088 2.075-.621.534-1.609.467-2.161-.145-.553-.614-.465-1.541.154-2.074"/></g><g fill="#61bb4b"><path d="m-1278.2-432.87c1.197-1.017 2.761-1.486 4.276-1.377 1.517.17 2.979.884 3.971 2.096.995 1.205 1.332 2.7 1.124 4.121-.206 1.402-.953 2.757-2.135 3.721-1.186.967-2.582 1.335-3.939 1.197-1.362-.082-2.688-.712-3.696-1.869-2.01-2.31-2.01-5.845.399-7.89"/><path d="m-1261.3-423.48c-1.411-2.385-.815-5.577 1.734-7.05 1.274-.767 2.764-.832 4.118-.442 1.356.38 2.555 1.266 3.214 2.589 1.339 2.598.1 5.611-2.351 6.863-1.22.594-2.56.75-3.749.396-1.188-.364-2.249-1.186-2.965-2.355"/><path d="m-1245.6-418.78c-.796-2.415.352-5.14 2.89-5.945 2.551-.851 5.391.74 6.11 3.255.704 2.561-.916 5.05-3.344 5.697-2.461.704-4.834-.632-5.656-3.01"/><path d="m-1231.7-411.43c-.35-2.286 1.139-4.5 3.49-4.834 2.371-.359 4.598 1.382 4.909 3.704.287 2.351-1.418 4.405-3.706 4.67-2.309.296-4.328-1.28-4.693-3.54"/><path d="m-1219.5-402.68c-.158-2.074 1.381-3.889 3.469-4.03 2.095-.137 3.912 1.447 4.063 3.526.151 2.079-1.414 3.871-3.495 4-2.081.13-3.881-1.436-4.04-3.504"/><path d="m-1208-393.89c-.185-1.827 1.182-3.411 2.995-3.581 1.815-.165 3.391 1.139 3.604 2.93.205 1.805-1.054 3.471-2.895 3.661-1.854.202-3.52-1.185-3.704-3.01"/><path d="m-1196.7-386.25c-.326-1.57.716-3.039 2.233-3.342 1.519-.301 2.985.575 3.34 2.12.374 1.501-.501 3.086-2.064 3.447-1.539.332-3.196-.645-3.509-2.225"/><path d="m-1185.1-380.69c-.509-1.229.15-2.589 1.365-3.089 1.22-.505 2.536.056 3.061 1.266.534 1.17.051 2.601-1.196 3.159-1.225.502-2.721-.115-3.23-1.336"/><path d="m-1173.7-377.6c-.581-.924-.271-2.095.619-2.659.898-.589 2.045-.358 2.639.529.591.886.4 2.091-.504 2.679-.901.589-2.168.336-2.754-.549"/><path d="m-1162.7-378.8c.609-.535 1.516-.474 2.064.137.547.611.527 1.541-.085 2.076-.61.535-1.579.472-2.124-.139-.545-.611-.463-1.54.145-2.075"/></g></g></svg>
